<svg xmlns="http://www.w3.org/2000/svg" viewBox="0 0 201 201"><defs><style>.cls-1{fill:#fff;}.cls-2{fill:#00adff;}.cls-3{fill:#00bcee;}.cls-4{fill:#fdff00;}.cls-5{fill:red;}</style></defs><title>NERGA Logo</title><g id="Layer_2" data-name="Layer 2"><g id="Layer_1-2" data-name="Layer 1"><path class="cls-1" d="M64.89,100.51h78.6L127,128.83l-22.29,18.25s-22-11.92-22.53-15.86S64.89,100.51,64.89,100.51Z"/><path class="cls-2" d="M144.43,56.87V94a25.42,25.42,0,0,1-.94,6.49h-39.3V53.06H115.6C120.64,61.07,128,62.67,144.43,56.87Z"/><path class="cls-3" d="M119,121.83l.3-3.3a.19.19,0,0,1,.21-.18.2.2,0,0,1,.18.18l.31,3.3a.51.51,0,0,1-.46.55.5.5,0,0,1-.54-.46A.14.14,0,0,1,119,121.83Z"/><path class="cls-3" d="M119.54,118.6a.51.51,0,0,1-.36-.15l-2.67-2.67a.51.51,0,0,1,0-.71l2.67-2.67a.51.51,0,0,1,.71,0l2.67,2.67a.51.51,0,0,1,0,.71l-2.67,2.67A.5.5,0,0,1,119.54,118.6Zm-2-3.17,2,2,2-2-2-2Z"/><path class="cls-3" d="M124.77,118l-3.47-1.52a.13.13,0,0,1-.07-.17.14.14,0,0,1,.15-.08l3.7.82a.49.49,0,0,1,.38.59.5.5,0,0,1-.6.39Z"/><path class="cls-3" d="M123.5,111.17l-2.53,3a.2.2,0,0,1-.29,0,.2.2,0,0,1,0-.26l2-3.33a.51.51,0,0,1,.69-.16.49.49,0,0,1,.16.69Z"/><path class="cls-3" d="M116.38,110.58l2,3.11a.26.26,0,0,1-.42.3l-2.35-2.82a.49.49,0,0,1,.07-.7.49.49,0,0,1,.7.06Z"/><path class="cls-3" d="M113.62,117.17l4.1-1a.22.22,0,0,1,.13.41l-3.92,1.57a.49.49,0,0,1-.65-.27.51.51,0,0,1,.28-.66Z"/><path class="cls-1" d="M5.82,111l-.1-1.49,7.18-5.17-7.51.53-.09-1.2,9.3-.66.1,1.41-7.17,5.25,7.51-.54.08,1.21Z"/><path class="cls-1" d="M7.46,87.61A5.2,5.2,0,0,1,10.7,87a5.52,5.52,0,0,1,3.35,1.4,4.71,4.71,0,0,1-.47,6.91,5.43,5.43,0,0,1-3.56.76,5.55,5.55,0,0,1-3.13-1.25A4.09,4.09,0,0,1,5.52,91.1,4.29,4.29,0,0,1,7.46,87.61Zm5.8,1.69a5.07,5.07,0,0,0-2.66-1,3.88,3.88,0,0,0-2.72.6,2.88,2.88,0,0,0-1.23,2.24,3,3,0,0,0,.75,2.45,4.18,4.18,0,0,0,2.83,1.19,4.24,4.24,0,0,0,2.68-.52,3,3,0,0,0,1.31-2.43A2.63,2.63,0,0,0,13.26,89.3Z"/><path class="cls-1" d="M7.8,78.51l1.13-4.09a4.23,4.23,0,0,1,.76-1.58,2.21,2.21,0,0,1,2.47-.65,2.45,2.45,0,0,1,1.23.69A2.57,2.57,0,0,1,14,74.05a1.83,1.83,0,0,1,.78-.64,2.13,2.13,0,0,1,1.21,0l1.22.3a3.87,3.87,0,0,0,.79.12.77.77,0,0,0,.66-.24l.2.06-.41,1.49a1.62,1.62,0,0,1-.33,0,6.83,6.83,0,0,1-.73-.14l-1.52-.34a1.3,1.3,0,0,0-1.35.31A2.43,2.43,0,0,0,14,76l-.75,2.69,3.86,1.07L16.79,81ZM13,75.69a2.35,2.35,0,0,0,0-1.41,1.48,1.48,0,0,0-1.11-.83,1.38,1.38,0,0,0-1.49.32,2.19,2.19,0,0,0-.45.92l-.8,2.89,3.07.85Z"/><path class="cls-1" d="M15.41,57.64l1,.46L15.12,61l7.47,3.4-.53,1.16-7.47-3.4L13.29,65l-1-.46Z"/><path class="cls-1" d="M19.15,50.93l.7-1.06L23.06,52l2.65-4-3.2-2.13.7-1.07L31,50,30.27,51l-3.63-2.42-2.65,4L27.62,55l-.71,1.06Z"/><path class="cls-1" d="M35.27,31.1l5.09-4.46.75.86L37,31.15l1.87,2.13,3.84-3.38.72.81-3.85,3.38,2.09,2.37,4.23-3.71.73.83-5.15,4.53Z"/><path class="cls-1" d="M49.27,20.27l1.2-.76,7.84,6.08-1.17.74-2.31-1.85-3.1,1.95.64,2.91-1.1.69ZM54,23.8l-3.41-2.71.94,4.28Z"/><path class="cls-1" d="M63.34,19.71a2.62,2.62,0,0,0,.84,1.05,2.34,2.34,0,0,0,2.32,0,3.5,3.5,0,0,0,1.07-.68A1.41,1.41,0,0,0,68,18.37a1.25,1.25,0,0,0-.85-.82,4.54,4.54,0,0,0-1.56.07l-1.24.22a5.66,5.66,0,0,1-1.8.1,2,2,0,0,1-1.48-1.27,2.71,2.71,0,0,1,0-2.23A3.31,3.31,0,0,1,63,12.76a4.06,4.06,0,0,1,2.51-.3,2.57,2.57,0,0,1,1.8,1.69l-1.09.46a2.41,2.41,0,0,0-.81-.9,2.22,2.22,0,0,0-2,.07,2.15,2.15,0,0,0-1.23,1,1.53,1.53,0,0,0,0,1.19,1.08,1.08,0,0,0,.9.71,7.79,7.79,0,0,0,1.71-.18L66,16.31a3.81,3.81,0,0,1,1.54,0,2.23,2.23,0,0,1,1.53,1.41,2.38,2.38,0,0,1-.14,2.47,4.77,4.77,0,0,1-2.09,1.62,3.79,3.79,0,0,1-2.79.22,3,3,0,0,1-1.8-1.83Z"/><path class="cls-1" d="M80.83,7.27l.27,1.08-3,.77,2,8-1.24.32-2-8-3,.77L73.5,9.12Z"/><path class="cls-1" d="M97.93,5.26l4.24.07a4.2,4.2,0,0,1,1.72.34,2.21,2.21,0,0,1,1.26,2.23,2.45,2.45,0,0,1-.37,1.36,2.53,2.53,0,0,1-1,.84,2,2,0,0,1,.81.6,2.08,2.08,0,0,1,.29,1.18l0,1.25a4.17,4.17,0,0,0,.08.79.77.77,0,0,0,.4.58v.21l-1.55,0a1.12,1.12,0,0,1-.09-.32,4.62,4.62,0,0,1,0-.73l0-1.56a1.34,1.34,0,0,0-.64-1.24,2.73,2.73,0,0,0-1.11-.18l-2.79-.05-.06,4-1.27,0Zm4,4.34a2.34,2.34,0,0,0,1.37-.33A1.46,1.46,0,0,0,103.86,8a1.35,1.35,0,0,0-.68-1.37,2.15,2.15,0,0,0-1-.21l-3,0-.05,3.19Z"/><path class="cls-1" d="M116.28,6.62l1.41.24,1.74,9.77-1.37-.24-.48-2.92-3.6-.62-1.48,2.58-1.27-.22Zm1.13,5.78-.71-4.3-2.18,3.8Z"/><path class="cls-1" d="M128.35,9.4l3.82,1.31a2.67,2.67,0,0,1,1.89,1.69,2.14,2.14,0,0,1-.05,1.39,2.09,2.09,0,0,1-.94,1.21,2.53,2.53,0,0,1-.89.27,3.17,3.17,0,0,1,.82.93,2.23,2.23,0,0,1,0,1.8A2.54,2.54,0,0,1,132,19.35a3.17,3.17,0,0,1-2.91.15l-3.75-1.29Zm1.08,9.09a1.92,1.92,0,0,0,1.8-.09,1.69,1.69,0,0,0,.64-.87,1.38,1.38,0,0,0-.42-1.61,3.41,3.41,0,0,0-1.15-.6l-2.39-.83-1.08,3.11Zm1-4.21a2.72,2.72,0,0,0,1.26.2,1.27,1.27,0,0,0,1.08-1,1.2,1.2,0,0,0-.31-1.41,3.15,3.15,0,0,0-1.13-.58l-2.15-.74-.94,2.73Z"/><path class="cls-1" d="M142.43,15l3.55,1.9a2.68,2.68,0,0,1,1.6,2,2.29,2.29,0,0,1-.26,1.37,2.1,2.1,0,0,1-1.13,1,2.49,2.49,0,0,1-.92.13,3,3,0,0,1,.66,1.05,2.3,2.3,0,0,1-.24,1.78,2.61,2.61,0,0,1-1.28,1.17,3.22,3.22,0,0,1-2.89-.32L138,23.18ZM142,24.11a2,2,0,0,0,1.8.2,1.69,1.69,0,0,0,.76-.76,1.37,1.37,0,0,0-.15-1.65,3.77,3.77,0,0,0-1-.79l-2.23-1.19-1.55,2.89Zm1.66-4a2.93,2.93,0,0,0,1.22.39,1.27,1.27,0,0,0,1.21-.77,1.21,1.21,0,0,0-.08-1.44,3.26,3.26,0,0,0-1-.75l-2-1.08L141.66,19Z"/><path class="cls-1" d="M155.47,22.78l1,.75-5.44,7.57-1-.74Z"/><path class="cls-1" d="M168,33.27l-.76.81L164.93,32l-5.59,6-.93-.87,5.58-6-2.3-2.14.75-.81Z"/><path class="cls-1" d="M168.67,43.42a2.54,2.54,0,0,0-.79,1.08,2.32,2.32,0,0,0,.6,2.25,3.57,3.57,0,0,0,.93.86,1.44,1.44,0,0,0,1.78,0,1.19,1.19,0,0,0,.56-1,4.33,4.33,0,0,0-.47-1.49l-.54-1.14a5.39,5.39,0,0,1-.57-1.71,2,2,0,0,1,.84-1.76,2.76,2.76,0,0,1,2.14-.62,3.35,3.35,0,0,1,2.12,1.38,4.09,4.09,0,0,1,.95,2.34,2.57,2.57,0,0,1-1.16,2.19l-.73-.93a2.51,2.51,0,0,0,.66-1,2.24,2.24,0,0,0-.6-1.93,2.08,2.08,0,0,0-1.32-.91,1.5,1.5,0,0,0-1.15.31,1.06,1.06,0,0,0-.44,1.05,7.66,7.66,0,0,0,.62,1.61l.55,1.18a3.73,3.73,0,0,1,.42,1.47,2.25,2.25,0,0,1-1,1.85,2.37,2.37,0,0,1-2.42.52,4.83,4.83,0,0,1-2.1-1.59,3.73,3.73,0,0,1-1-2.64,3,3,0,0,1,1.29-2.22Z"/><path class="cls-1" d="M188.78,65.49a3.31,3.31,0,0,1-1.7,2.54l-.49-1.15a2.29,2.29,0,0,0,1-1.43,3.25,3.25,0,0,0-.26-1.82,2.77,2.77,0,0,0-1.73-1.58,4.22,4.22,0,0,0-3,.33,4.68,4.68,0,0,0-2.22,1.71,2.65,2.65,0,0,0,0,2.56,2.94,2.94,0,0,0,1.47,1.6,3.16,3.16,0,0,0,2.51-.16l-1.14-2.69,1-.41,1.59,3.77-4.59,1.95-.32-.75,1-.75a4.63,4.63,0,0,1-1.34-.65,4.18,4.18,0,0,1-1.24-1.73,4,4,0,0,1-.11-3A5.14,5.14,0,0,1,182,61.21a5.33,5.33,0,0,1,3.92-.3,4,4,0,0,1,2.41,2.32A4.7,4.7,0,0,1,188.78,65.49Z"/><path class="cls-1" d="M192.82,83.12a5.16,5.16,0,0,1-2.89,1.61,5.57,5.57,0,0,1-3.62-.26,4.71,4.71,0,0,1-1.73-6.72,5.4,5.4,0,0,1,3.13-1.84,5.54,5.54,0,0,1,3.37.2,4.07,4.07,0,0,1,2.47,3.1A4.26,4.26,0,0,1,192.82,83.12Zm-6,.24a5.17,5.17,0,0,0,2.85.11A3.94,3.94,0,0,0,192,82a2.9,2.9,0,0,0,.45-2.51A3,3,0,0,0,191,77.45a4.16,4.16,0,0,0-3.06-.24,4.29,4.29,0,0,0-2.38,1.34,3,3,0,0,0-.47,2.72A2.66,2.66,0,0,0,186.77,83.36Z"/><path class="cls-1" d="M195.32,91.67l.08,1.25-8.2.53.3,4.67-1.11.07L186,92.27Z"/><path class="cls-1" d="M195.61,105.34l-.52,6.45L194,111.7l.42-5.19-2.82-.23-.37,4.56-1.11-.08.37-4.57-4.23-.33.1-1.26Z"/><path class="cls-1" d="M42.34,162.37l1,1-3.86,9.14-1-.94,1.18-2.71L37,166.34l-2.64,1.36-1-.88Zm-2.2,5.46,1.75-4-3.9,2Z"/><path class="cls-1" d="M47.69,174.93a2.68,2.68,0,0,0-.42,1.28,2.34,2.34,0,0,0,1.26,1.95,3.6,3.6,0,0,0,1.15.53,1.42,1.42,0,0,0,1.69-.57,1.24,1.24,0,0,0,.22-1.15,4.66,4.66,0,0,0-.91-1.28l-.86-.92a5.7,5.7,0,0,1-1.07-1.45,2,2,0,0,1,.26-1.93,2.72,2.72,0,0,1,1.85-1.24,3.28,3.28,0,0,1,2.44.66,4.1,4.1,0,0,1,1.62,1.94,2.56,2.56,0,0,1-.43,2.43l-1-.66a2.44,2.44,0,0,0,.31-1.17,2.19,2.19,0,0,0-1.15-1.65,2.1,2.1,0,0,0-1.54-.47,1.49,1.49,0,0,0-1,.65A1.06,1.06,0,0,0,50,173a8.7,8.7,0,0,0,1.08,1.33l.89,1a3.65,3.65,0,0,1,.84,1.27,2.23,2.23,0,0,1-.34,2.06,2.37,2.37,0,0,1-2.14,1.23,4.87,4.87,0,0,1-2.5-.87,3.76,3.76,0,0,1-1.71-2.21,3.07,3.07,0,0,1,.55-2.52Z"/><path class="cls-1" d="M60.06,182.33a2.62,2.62,0,0,0-.22,1.32,2.38,2.38,0,0,0,1.55,1.74,3.86,3.86,0,0,0,1.22.34,1.43,1.43,0,0,0,1.58-.83,1.24,1.24,0,0,0,0-1.18,4.69,4.69,0,0,0-1.1-1.11l-1-.77a5.67,5.67,0,0,1-1.29-1.27,2,2,0,0,1-.05-1.95,2.73,2.73,0,0,1,1.64-1.52,3.35,3.35,0,0,1,2.51.27,4.11,4.11,0,0,1,1.9,1.66,2.55,2.55,0,0,1,0,2.47L65.74,181a2.43,2.43,0,0,0,.12-1.21,2.23,2.23,0,0,0-1.4-1.45,2.12,2.12,0,0,0-1.59-.22,1.53,1.53,0,0,0-.89.8,1.07,1.07,0,0,0,.09,1.14,8.17,8.17,0,0,0,1.27,1.15l1,.8a3.93,3.93,0,0,1,1,1.13,2.22,2.22,0,0,1,0,2.08,2.39,2.39,0,0,1-1.92,1.56,4.87,4.87,0,0,1-2.6-.47,3.71,3.71,0,0,1-2-1.92,3.07,3.07,0,0,1,.15-2.57Z"/><path class="cls-1" d="M81.37,184.69a5.13,5.13,0,0,1,.06,3.3,5.53,5.53,0,0,1-1.93,3.08,4.7,4.7,0,0,1-6.74-1.62,5.32,5.32,0,0,1-.15-3.63,5.49,5.49,0,0,1,1.75-2.88,4.07,4.07,0,0,1,3.89-.74A4.28,4.28,0,0,1,81.37,184.69Zm-2.63,5.45a5.06,5.06,0,0,0,1.44-2.47,4,4,0,0,0-.14-2.78,3,3,0,0,0-2-1.58,3.08,3.08,0,0,0-2.54.34,4.2,4.2,0,0,0-1.65,2.59,4.35,4.35,0,0,0,.08,2.73,3,3,0,0,0,2.17,1.69A2.64,2.64,0,0,0,78.74,190.14Z"/><path class="cls-1" d="M95.23,186a3.27,3.27,0,0,1,.86,2.21l-1.22-.12a2.61,2.61,0,0,0-.68-1.5,2.57,2.57,0,0,0-1.67-.68,2.71,2.71,0,0,0-2.27.76,4.45,4.45,0,0,0-1.1,2.87,4.36,4.36,0,0,0,.49,2.72,2.62,2.62,0,0,0,2.14,1.23A2.38,2.38,0,0,0,94,192.6a4.34,4.34,0,0,0,.71-1.43l1.22.12a4.23,4.23,0,0,1-1.31,2.35,3.79,3.79,0,0,1-3.06.92,3.88,3.88,0,0,1-2.59-1.23,6.13,6.13,0,0,1,.34-7.41,3.92,3.92,0,0,1,3.34-1.13A3.78,3.78,0,0,1,95.23,186Z"/><path class="cls-1" d="M103.19,185.37l1.28-.05.34,9.32-1.27.05Z"/><path class="cls-1" d="M114,184.34l1.41-.24,4.88,8.64L119,193l-1.42-2.6-3.61.61-.53,2.92-1.28.21Zm3,5.08-2.1-3.83-.79,4.31Z"/><path class="cls-1" d="M130.05,180.22l.34,1.05-3,1,2.51,7.82-1.22.39-2.51-7.82-3,1-.34-1.06Z"/><path class="cls-1" d="M135.87,177.72l1.15-.54,3.94,8.45-1.15.54Z"/><path class="cls-1" d="M150.31,171a5.16,5.16,0,0,1,2.5,2.16,5.53,5.53,0,0,1,1,3.49,4.71,4.71,0,0,1-5.71,3.93,5.39,5.39,0,0,1-2.81-2.31,5.53,5.53,0,0,1-1-3.23,4.06,4.06,0,0,1,2.06-3.38A4.25,4.25,0,0,1,150.31,171Zm2.3,5.6a5.17,5.17,0,0,0-.87-2.72,4,4,0,0,0-2.17-1.76,2.94,2.94,0,0,0-2.52.44,3,3,0,0,0-1.44,2.11,5,5,0,0,0,2.91,4.73,3,3,0,0,0,2.71-.48A2.66,2.66,0,0,0,152.61,176.6Z"/><path class="cls-1" d="M155.23,165.53l1.09-1,8.52,2.4-5.1-5.55.89-.81,6.31,6.86-1,1L157.33,166l5.09,5.54-.88.81Z"/><path class="cls-1" d="M100.5,201A100.5,100.5,0,1,1,201,100.5,100.61,100.61,0,0,1,100.5,201Zm0-200A99.5,99.5,0,1,0,200,100.5,99.62,99.62,0,0,0,100.5,1Z"/><path class="cls-1" d="M100.5,181.28a80.78,80.78,0,1,1,80.78-80.78A80.87,80.87,0,0,1,100.5,181.28Zm0-160.56a79.78,79.78,0,1,0,79.78,79.78A79.87,79.87,0,0,0,100.5,20.72Z"/><path d="M84,126.14a1.44,1.44,0,0,1-.8-.21c-.36-.23-.75-.74-.54-1.85.33-1.78,2.55-1.47,5.1-1.12h0a3.64,3.64,0,0,0,1.12-1.54q-.48-.11-1-.27A2.85,2.85,0,0,1,86,118.1a5.54,5.54,0,0,1,1.29-3l-.38,0A2.14,2.14,0,0,1,85.2,114c-.73-1.39.32-3.54,1.33-5.63a11.2,11.2,0,0,0,1.06-2.64c-2.36,0-3.23,2.83-3.24,2.86a.59.59,0,0,1-.75.4.61.61,0,0,1-.4-.75c0-.15,1.17-3.72,4.36-3.72a1.13,1.13,0,0,1,1,.51c.5.79-.13,2.08-1,3.87-.76,1.56-1.79,3.69-1.35,4.54,0,.09.18.34.8.44,2.43.37,4.59-2.95,5.86-5.66.56-1.44,1-2.4,1-2.42a.61.61,0,0,1,.77-.33.6.6,0,0,1,.35.75,23.17,23.17,0,0,1-1,2.43c-.48,1.24-1.09,2.84-1.65,4.51a6.19,6.19,0,0,1,3.42,1.79,5.88,5.88,0,0,1,1.51,5.52c-1.08,4.67-5.66,4.26-9.25,3.78Q85.34,126.14,84,126.14Zm1-2.25c-.64,0-1.1.1-1.15.41s0,.61,0,.62.53.25,2.47-.94C85.78,123.93,85.33,123.89,84.94,123.89Zm4.31-.74c3.53.38,6.18.13,6.9-3a4.71,4.71,0,0,0-1.2-4.41A5,5,0,0,0,92,114.28c-.15.48-.29,1-.43,1.41a4.13,4.13,0,0,1,2.24,1.23,2.21,2.21,0,0,1,.48,1.71,3.1,3.1,0,0,1-1.51,2.24,4.73,4.73,0,0,1-2.68.69A5.54,5.54,0,0,1,89.25,123.15Zm2-6.3c-.22.82-.37,1.55-.52,2.21-.1.46-.19.89-.29,1.3a3.61,3.61,0,0,0,1.7-.51,1.91,1.91,0,0,0,1-1.36,1,1,0,0,0-.22-.82A3,3,0,0,0,91.27,116.85Zm-.52-2.55-.18,0a4.54,4.54,0,0,0-3.41,3.85A1.64,1.64,0,0,0,88.28,120a6,6,0,0,0,1,.26c.11-.43.22-.92.34-1.46.18-.81.38-1.73.67-2.8C90.4,115.45,90.57,114.88,90.75,114.3Z"/><path class="cls-3" d="M124.75,123.71a.76.76,0,0,1-.38-.11c-.18,0-.55,0-.83,0a10.44,10.44,0,0,1-2.16,0,4.07,4.07,0,0,1-1.84-.75,4.17,4.17,0,0,1-1.85.75,10.43,10.43,0,0,1-2.16,0c-.28,0-.65,0-.83,0a.74.74,0,0,1-.82,0,.77.77,0,0,1-.31-.61.5.5,0,0,1,0-.17c0-.17-.18-.51-.29-.78a10.56,10.56,0,0,1-.64-2.06,4.15,4.15,0,0,1,.13-2,4.18,4.18,0,0,1-1.27-1.53,10,10,0,0,1-.69-2c-.07-.28-.17-.64-.23-.8a.77.77,0,0,1-.26-.57,1,1,0,0,1,0-.23.75.75,0,0,1,.65-.51l.65-.51a10.08,10.08,0,0,1,1.76-1.25,4.53,4.53,0,0,1,1.93-.49,4.1,4.1,0,0,1,1.06-1.68,10.22,10.22,0,0,1,1.73-1.29c.24-.15.55-.35.69-.46a.74.74,0,0,1,1.37,0c.14.11.45.31.69.46a10.22,10.22,0,0,1,1.73,1.29A4.1,4.1,0,0,1,123.7,110a4.53,4.53,0,0,1,1.93.49,10.08,10.08,0,0,1,1.76,1.25l.65.51a.75.75,0,0,1,.65.51,1,1,0,0,1,0,.23.77.77,0,0,1-.26.57c-.06.16-.16.52-.23.8a10,10,0,0,1-.69,2,4.18,4.18,0,0,1-1.27,1.53,4.15,4.15,0,0,1,.13,2,10.56,10.56,0,0,1-.64,2.06c-.11.26-.24.61-.29.78a.5.5,0,0,1,0,.17.77.77,0,0,1-.75.75Zm-.6-.31Zm-9.22,0h0Zm0-1.3.68,0a8.7,8.7,0,0,0,1.84,0,2.25,2.25,0,0,0,1.46-.72.87.87,0,0,1,.63-.31.72.72,0,0,1,.6.32,2.33,2.33,0,0,0,1.46.71,8.7,8.7,0,0,0,1.84,0l.68,0,.24-.64a9.37,9.37,0,0,0,.56-1.75,2.31,2.31,0,0,0-.24-1.62.76.76,0,0,1,.39-1.16,2.27,2.27,0,0,0,1.13-1.17,8.47,8.47,0,0,0,.58-1.74c.06-.25.12-.46.18-.66l-.53-.42a10,10,0,0,0-1.49-1.08,2.31,2.31,0,0,0-1.62-.27.75.75,0,0,1-.68-.12.77.77,0,0,1-.31-.61,2.23,2.23,0,0,0-.76-1.44,9.12,9.12,0,0,0-1.48-1.09c-.21-.13-.4-.25-.56-.37l-.57.37a9.12,9.12,0,0,0-1.48,1.09,2.23,2.23,0,0,0-.76,1.45.83.83,0,0,1-.32.62.75.75,0,0,1-.68.09,2.4,2.4,0,0,0-1.61.28,10,10,0,0,0-1.49,1.08l-.53.42c.06.2.12.41.18.66a8.47,8.47,0,0,0,.58,1.74,2.23,2.23,0,0,0,1.14,1.17.79.79,0,0,1,.49.5.74.74,0,0,1-.11.66,2.3,2.3,0,0,0-.24,1.62,9.37,9.37,0,0,0,.56,1.75C114.79,121.7,114.88,121.91,114.94,122.1Zm3.85-15.2Z"/><path d="M125.4,124.38a.6.6,0,0,1-.36-.12,9.77,9.77,0,0,0-1,0,11.76,11.76,0,0,1-2.37,0,4.3,4.3,0,0,1-2.11-.91,4.39,4.39,0,0,1-2.11.91,11.86,11.86,0,0,1-2.38,0,9.77,9.77,0,0,0-1,0,.6.6,0,0,1-.71,0,.58.58,0,0,1-.24-.48.62.62,0,0,1,0-.19,8.35,8.35,0,0,0-.34-1,11.94,11.94,0,0,1-.71-2.26,4.38,4.38,0,0,1,.21-2.28,4.37,4.37,0,0,1-1.51-1.73,11.26,11.26,0,0,1-.76-2.25,8.26,8.26,0,0,0-.29-1,.64.64,0,0,1-.25-.49.57.57,0,0,1,0-.18.61.61,0,0,1,.57-.42,7.66,7.66,0,0,0,.82-.62A11.55,11.55,0,0,1,112.8,110a4.41,4.41,0,0,1,2.24-.5,4.37,4.37,0,0,1,1.17-2,11.73,11.73,0,0,1,1.91-1.41,7.12,7.12,0,0,0,.84-.59.61.61,0,0,1,1.15,0,7.12,7.12,0,0,0,.84.59,11.73,11.73,0,0,1,1.91,1.41,4.37,4.37,0,0,1,1.17,2,4.32,4.32,0,0,1,2.24.5,11.16,11.16,0,0,1,1.93,1.38,7.66,7.66,0,0,0,.82.62.61.61,0,0,1,.57.42.57.57,0,0,1,0,.18.64.64,0,0,1-.25.49,8.26,8.26,0,0,0-.29,1,11.26,11.26,0,0,1-.76,2.25,4.37,4.37,0,0,1-1.51,1.73,4.38,4.38,0,0,1,.21,2.28,11.94,11.94,0,0,1-.71,2.26,8.35,8.35,0,0,0-.34,1,.41.41,0,0,1,0,.19.58.58,0,0,1-.24.48A.59.59,0,0,1,125.4,124.38Zm-11.24-.25Zm10.75,0Zm1-.71h0Zm-12.69,0h0Zm6.34-1.5h0a.58.58,0,0,1,.49.25,2.76,2.76,0,0,0,1.8.91,10.72,10.72,0,0,0,2.12,0,7.7,7.7,0,0,1,.92,0c.08-.25.19-.54.32-.87a10.31,10.31,0,0,0,.64-2,2.75,2.75,0,0,0-.31-2,.63.63,0,0,1-.08-.55.59.59,0,0,1,.39-.38,2.74,2.74,0,0,0,1.42-1.43,11,11,0,0,0,.67-2c.09-.35.16-.65.25-.89-.21-.15-.45-.35-.73-.58a11.47,11.47,0,0,0-1.72-1.23,2.73,2.73,0,0,0-2-.32.6.6,0,0,1-.55-.09.62.62,0,0,1-.25-.5,2.79,2.79,0,0,0-.92-1.79,10.14,10.14,0,0,0-1.71-1.25c-.3-.2-.56-.36-.76-.51-.21.15-.47.31-.77.51a10.14,10.14,0,0,0-1.71,1.25,2.78,2.78,0,0,0-.92,1.8.63.63,0,0,1-.26.5.61.61,0,0,1-.54.08,2.73,2.73,0,0,0-2,.32,11.47,11.47,0,0,0-1.72,1.23c-.28.23-.52.43-.73.58.09.24.16.54.25.89a10.78,10.78,0,0,0,.67,2,2.71,2.71,0,0,0,1.43,1.43.63.63,0,0,1,.39.39.64.64,0,0,1-.09.54,2.79,2.79,0,0,0-.31,2,10.31,10.31,0,0,0,.64,2c.13.33.24.62.32.87a7.86,7.86,0,0,1,.93,0,10.62,10.62,0,0,0,2.11,0,2.76,2.76,0,0,0,1.8-.91A.61.61,0,0,1,119.53,121.92Zm-9.66-8.72Zm19.33,0Zm-9.07-7.46Zm-1.19,0h0Zm0,0Z"/><path class="cls-4" d="M116.75,116.28a.24.24,0,0,1,0,.2s0,0,0,0h0v0l0,.07a.59.59,0,0,0,0,.14,1.51,1.51,0,0,0,0,.3,1.85,1.85,0,0,0,.19.56c.1.19.21.38.34.59l.2.33a1.74,1.74,0,0,1,.1.23.74.74,0,0,1,0,.19.77.77,0,0,1-.11.57l0,0a.75.75,0,1,1-1.27-.8l0,0,0,0a.87.87,0,0,1,.33-.25.7.7,0,0,1,.19-.06.72.72,0,0,1,.2,0l.26,0,.38.09.66.15a1.73,1.73,0,0,0,.6,0,1.24,1.24,0,0,0,.54-.22h.35a1.3,1.3,0,0,0,.54.21,1.68,1.68,0,0,0,.59,0,6.15,6.15,0,0,0,.66-.15l.38-.08a.85.85,0,0,1,.25,0,.59.59,0,0,1,.19,0l.17,0a.51.51,0,0,1,.12,0,.79.79,0,0,1,.18.14l.08.08a.75.75,0,0,1-1.18.94v0l0,0a.85.85,0,0,1-.14-.38V119l0-.19c0-.1.08-.17.11-.23a3.4,3.4,0,0,1,.2-.34c.12-.2.24-.39.34-.58a2,2,0,0,0,.19-.56,1.25,1.25,0,0,0,0-.58h0l.12-.36a1.31,1.31,0,0,0,.37-.43,1.88,1.88,0,0,0,.17-.57c0-.21,0-.43.07-.67l0-.38a1.48,1.48,0,0,1,0-.24,1.84,1.84,0,0,1,.06-.18l.09-.14a.71.71,0,0,1,.22-.21l.17-.08a.75.75,0,1,1,.53,1.4h-.07a.8.8,0,0,1-.4,0l-.2-.07-.17-.1a1.81,1.81,0,0,1-.19-.17L123,114c-.16-.18-.3-.34-.45-.49a1.87,1.87,0,0,0-.47-.34,1.34,1.34,0,0,0-.54-.13h0l-.37-.27a1.27,1.27,0,0,0-.29-.46,1.8,1.8,0,0,0-.46-.35l-.6-.28-.35-.15-.21-.12a.92.92,0,0,1-.14-.11.58.58,0,0,1-.1-.11.54.54,0,0,1-.13-.23.75.75,0,0,1,0-.26.75.75,0,1,1,1.49-.06v.06a.82.82,0,0,1-.12.39.67.67,0,0,1-.12.16l-.15.13a1.29,1.29,0,0,1-.23.12,2.45,2.45,0,0,1-.35.15c-.23.09-.44.17-.63.26a1.55,1.55,0,0,0-.83.84v0l-.24.17a1.39,1.39,0,0,0-.58.15,1.84,1.84,0,0,0-.47.36c-.15.15-.29.33-.44.51l-.25.29s-.1.11-.17.17a.91.91,0,0,1-.47.22,1,1,0,0,1-.34,0,.75.75,0,0,1-.53-.92.76.76,0,0,1,.93-.52h0l0,0a1,1,0,0,1,.34.22l.12.17a1.6,1.6,0,0,1,.07.19,1.81,1.81,0,0,1,0,.25l0,.39c0,.24,0,.46.07.67a1.59,1.59,0,0,0,.18.57,1.32,1.32,0,0,0,.16.25l.1.1.06,0,0,0h0A.25.25,0,0,1,116.75,116.28Zm-.44.14a.22.22,0,0,0,.13.15h0l0,0-.11,0a.88.88,0,0,1-.2-.09,2.9,2.9,0,0,1-.36-.25,2.58,2.58,0,0,1-.54-.69c-.13-.24-.25-.48-.35-.71s-.1-.22-.15-.31,0-.09-.06-.09,0,0,0,0a.3.3,0,0,0,.07.1.61.61,0,0,0,.26.17l.47-1.42a.67.67,0,0,0-.28,0c-.24.06-.15.08-.15.07l.12,0,.31-.16a7.82,7.82,0,0,1,.71-.36,2.54,2.54,0,0,1,.82-.21,1.82,1.82,0,0,1,.85.14l-.24.18v0a2.11,2.11,0,0,1,.62-1.55c.18-.2.37-.38.55-.55a2.71,2.71,0,0,0,.24-.25s.07-.07.07-.09h0a.35.35,0,0,0-.07.09.5.5,0,0,0-.08.31h1.5a.78.78,0,0,0,0-.22c-.07-.14,0-.1-.09-.15l0,0s0,0,0,0l.08.09.26.24c.18.16.38.34.57.54a2.78,2.78,0,0,1,.49.72,1.73,1.73,0,0,1,.16.89l-.37-.27h0a2.14,2.14,0,0,1,1.72.15c.25.12.48.25.69.37a2.43,2.43,0,0,0,.3.17l.1,0s0,0,0,0l-.11,0a.52.52,0,0,0-.32,0l.47,1.42a.84.84,0,0,0,.14-.06.68.68,0,0,0,.12-.11l0,0,0-.07s0,0,0,0l-.07.1-.15.32a7.6,7.6,0,0,1-.35.7,2.53,2.53,0,0,1-.54.68,1.88,1.88,0,0,1-.78.41l.11-.36,0,0a2.14,2.14,0,0,1,.41,1.65c0,.28-.08.54-.13.78s0,.24-.06.34a.19.19,0,0,0,0,.11s0,0,0,0a.4.4,0,0,0,0-.11.65.65,0,0,0-.11-.3l-1.22.88.06.07a.42.42,0,0,0,.15.11l.07,0H122s0,0,0,0l-.11,0-.34,0a8,8,0,0,1-.79-.12,2.77,2.77,0,0,1-.81-.31,1.84,1.84,0,0,1-.62-.62h.35v0a2.12,2.12,0,0,1-1.43.91,8,8,0,0,1-.79.12l-.34,0-.11,0s0,0,0,0l.11,0a.68.68,0,0,0,.25-.2l-1.22-.88v0a.55.55,0,0,0-.1.28.4.4,0,0,0,0,.11s0,0,0,0,0-.06,0-.11,0-.22-.06-.34-.11-.51-.14-.79a2.56,2.56,0,0,1,0-.87,2,2,0,0,1,.14-.41,1.18,1.18,0,0,1,.11-.19l.06-.09,0,0,0,0v0h0A.21.21,0,0,0,116.31,116.42Z"/><path class="cls-4" d="M119.54,117.77a.49.49,0,0,1-.36-.15l-1.84-1.84a.51.51,0,0,1,0-.71l1.84-1.84a.51.51,0,0,1,.71,0l1.84,1.84a.51.51,0,0,1,0,.71l-1.84,1.84A.49.49,0,0,1,119.54,117.77Zm-1.14-2.34,1.14,1.13,1.13-1.13-1.13-1.14Z"/><path class="cls-4" d="M122,102a1.5,1.5,0,0,1-1.5-1.5V59a1.5,1.5,0,0,1,3,0V100.5A1.5,1.5,0,0,1,122,102Z"/><path class="cls-4" d="M144.69,81.26H103.21a1.5,1.5,0,0,1,0-3h41.48a1.5,1.5,0,0,1,0,3Z"/><path class="cls-4" d="M64,56.87V94a25.42,25.42,0,0,0,.94,6.49h39.3V53.06H92.78C87.74,61.07,80.42,62.67,64,56.87Z"/><rect class="cls-5" x="72.5" y="59.03" width="6" height="20.74"/><rect class="cls-5" x="85.15" y="59.03" width="6" height="20.74"/><rect class="cls-5" x="66.5" y="79.76" width="6" height="20.74"/><rect class="cls-5" x="79.15" y="79.76" width="6" height="20.74"/><rect class="cls-5" x="91.79" y="79.76" width="6" height="20.74"/><rect class="cls-5" x="97.79" y="53.05" width="6" height="26.71"/><rect class="cls-5" x="63.34" y="76.76" width="41.47" height="6"/><path d="M146.93,53.33l-3.33,1.18c-16.52,5.82-22,3.38-25.88-2.79L117,50.55H91.4l-.73,1.17c-3.88,6.17-9.36,8.61-25.89,2.79l-3.33-1.18V94a27.83,27.83,0,0,0,1,7.13h0a.19.19,0,0,0,0,.07L63,103H63c5.18,16.58,22,36.35,39.92,46.72l1.25.72,1.26-.72c17.93-10.37,34.74-30.13,39.92-46.72h0l.5-1.84v0h0a27.79,27.79,0,0,0,1-7.13Zm-40.24,2.22h7.58c5.52,7.79,13.56,9.2,27.66,4.78V94a20.68,20.68,0,0,1-.42,4H106.69ZM66.45,60.33c14.12,4.42,22.15,3,27.67-4.78h7.57V98H66.88a20.74,20.74,0,0,1-.43-4ZM68.3,103h33.39v40.06C85.57,132.44,72.83,115.54,68.3,103Zm38.39,40.06V103h33.4C135.56,115.55,122.82,132.44,106.69,143.06Z"/><path class="cls-1" d="M134.32,63.62s-.78-.13-.93.18a1,1,0,0,0-.48.12c-.13.12-.14.21-.23.22s-.58,0-.75.14a.37.37,0,0,0-.11.39c0,.08.11.34.29.35,0,0,0-.18.29-.18s.43,0,.49.09a.39.39,0,0,1-.11.48c-.19.13-.46.1-.49,0a.14.14,0,0,0-.26.09.39.39,0,0,0,.45.32c.23,0,.14.09,0,.15a2.06,2.06,0,0,0-1.19,1.74,1.07,1.07,0,0,1,.58-.3s-.08-.8.56-1c0,0-1.14,1.29.55,1.72a2.51,2.51,0,0,1-.13-.88,1.42,1.42,0,0,1,1.1-1.17s-.94.59-.86,1.18a1.5,1.5,0,0,0,.58.94s-.05-.29.44-1a2,2,0,0,0,.49-1.58.31.31,0,0,1,.16.27,1.42,1.42,0,0,1-.13,1c-.22.27-.62.87-.62.87a1.17,1.17,0,0,0,1.19-.75,2.09,2.09,0,0,0-.38-2.13.6.6,0,0,1,.43.2c.13.19.09.46.17.47A1.5,1.5,0,0,0,134.32,63.62Zm-1.17.74c-.06,0-.3.09-.32-.06s.18-.14.18-.14a.43.43,0,0,0,.27-.12A.3.3,0,0,1,133.15,64.36Z"/><path class="cls-1" d="M133.21,68a.84.84,0,0,0,.13.35,2.78,2.78,0,0,1-1-.26c-.29-.2-.36-.48-.55-.49s-.5.26-.84.54a2.13,2.13,0,0,1-1,.6c-.36,0-.26-.42-.46-.45s-.59.31-.47.54c0,0,.14-.16.24-.1s.15.2.07.23-.37,0-.3.34.27.33.37.32-.28-.35.07-.39c0,0-.06.6.51.39a.32.32,0,0,1-.19-.22c0-.15.09-.19.27-.19s.25.06.25.15a.24.24,0,0,1-.08.16s.24.06.34,0,.32-.51.45-.49-.08.3-.08.3.26,0,.35-.1.18-.35.27-.33,0,.35,0,.35a.34.34,0,0,0,.3-.15c.12-.16.09-.32.22-.31s.85,1,1.32,1.31,1.4.62,1.41,1.07-.74.86-.6,1.31.84.62.85,1-.32,1.11-.54,1.09,0-.44-.15-.5a.61.61,0,0,0-.71.45s.27-.16.36-.07.13.31,0,.33-.61.29-.08.58a.2.2,0,0,1,.23-.24c.25,0,.11.37.33.44s.33,0,.33,0-.14,0-.13-.12a.16.16,0,0,1,.12-.17c.09,0,.18-.14.19-.32s.14-.4.3-.43.52-.1.64-.31c0,0-.23,0-.22-.07s.23-.12.34-.21a1.27,1.27,0,0,0,.34-.43s-.22.08-.29,0,.45-.5.35-.81a.41.41,0,0,1-.29.13.74.74,0,0,1-.54-.3.35.35,0,0,1,.09-.51c.26-.2.47-.35.49-.45s.05-.21.11-.19a.89.89,0,0,0,.65.21.81.81,0,0,0,.68-.88,1.83,1.83,0,0,0-.72-1.26c-.39-.34-1-.82-1.06-1a1.9,1.9,0,0,1,0-.7c0-.08.17-.09.17,0a1.5,1.5,0,0,0,.42,1c.36.28.61,0,.63-.1s-.14.06-.2-.06,0-1.07-.33-1.28a.62.62,0,0,0-1,.41,1.67,1.67,0,0,0,.49,1.48c.47.43,1.12,1,1.13,1.5s-.38.51-.55.26-.17-.5-.35-.71-1.49-1.14-1.63-1.39a3.28,3.28,0,0,1-.21-.87,3.44,3.44,0,0,1-.36,0l-.32,0a1.36,1.36,0,0,0,0,.55S133.28,68.29,133.21,68Z"/><path class="cls-1" d="M133.49,70.36s-.8.59-.73.9.29.52.31.71-.76.9-1.09.76-.11-.22-.06-.24.09-.41-.15-.44-.51,0-.58.18c0,0,.26,0,.3.06s.08.29-.07.3-.2-.12-.29-.1-.39.31-.27.55c0,0,.23-.18.35-.11s.2.12.16.17-.2.17-.12.35a.93.93,0,0,0,.23.29s0-.39.16-.36.07.14.07.14a.27.27,0,0,0,.28-.12c.09-.16.08-.21.17-.21s.51-.08.56,0,.3.14.56,0c0,0-.14-.09-.11-.15s.79.08.87-.07c0,0-.42-.16-.31-.29s.28.07.39-.08c0,0-.16,0-.16-.29a.69.69,0,0,1,.24-.61c.2-.17.37-.3.35-.61S133.49,70.36,133.49,70.36Z"/><path class="cls-1" d="M131.57,66.33a2.18,2.18,0,0,1-.59-.07c-.27-.08-.94-.62-.93-.83s0-.31.15-.32.05-.35-.15-.4-.51,0-.53.1.14,0,.16,0a.43.43,0,0,1,0,.22.62.62,0,0,0-.35-.22c-.18,0-.48.35-.26.55,0,0,.15-.25.23-.2s.16.22.07.22-.18,0-.22,0-.12.43.19.41a.14.14,0,0,1,.12-.13.19.19,0,0,1,.22.16c0,.12-.11.29-.26.22a.68.68,0,0,0,.45.37c.33.07.4.09.39.18s-.15.14-.19.1a.59.59,0,0,0,.41.28c.28,0,.25.08.24.12s-.23,0-.23,0,.07.27.6.21C131.07,67.42,131.13,66.57,131.57,66.33Z"/><path class="cls-1" d="M113.06,62.62s-.78-.13-.93.18a1,1,0,0,0-.48.12c-.13.12-.14.21-.23.22s-.58,0-.75.14a.37.37,0,0,0-.11.39c0,.08.11.34.29.35,0,0,0-.18.29-.18s.43,0,.48.09a.38.38,0,0,1-.1.48c-.19.13-.46.1-.49,0a.14.14,0,0,0-.26.09.39.39,0,0,0,.45.32c.23,0,.14.09,0,.15A2.06,2.06,0,0,0,110,66.71a1.07,1.07,0,0,1,.58-.3s-.08-.8.56-1c0,0-1.14,1.29.55,1.72a2.51,2.51,0,0,1-.13-.88,1.42,1.42,0,0,1,1.1-1.17s-.94.59-.86,1.18a1.5,1.5,0,0,0,.58.94s0-.29.44-1a1.91,1.91,0,0,0,.48-1.58.31.31,0,0,1,.17.27,1.54,1.54,0,0,1-.13,1c-.22.27-.62.87-.62.87a1.17,1.17,0,0,0,1.19-.75,2.09,2.09,0,0,0-.38-2.13.62.62,0,0,1,.43.2c.13.19.09.46.16.47A1.48,1.48,0,0,0,113.06,62.62Zm-1.17.74c-.07,0-.3.09-.32-.06s.18-.14.18-.14A.43.43,0,0,0,112,63,.33.33,0,0,1,111.89,63.36Z"/><path class="cls-1" d="M112,67a.72.72,0,0,0,.13.35,2.78,2.78,0,0,1-1-.26c-.29-.2-.36-.48-.55-.49s-.5.26-.84.54a2.13,2.13,0,0,1-1,.6c-.36,0-.26-.42-.47-.45s-.58.31-.46.54c0,0,.13-.16.24-.1s.15.2.07.23-.37,0-.3.34.27.33.36.32-.27-.35.08-.39c0,0-.06.6.51.39a.32.32,0,0,1-.19-.22c0-.15.09-.19.26-.19s.26.06.26.15a.24.24,0,0,1-.08.16s.24.06.34,0,.32-.51.45-.49-.08.3-.08.3.26,0,.35-.1.18-.35.27-.33,0,.35,0,.35a.34.34,0,0,0,.3-.15c.12-.16.09-.32.22-.31s.85,1,1.32,1.31,1.4.62,1.41,1.07-.74.86-.6,1.31.84.62.85,1-.32,1.11-.55,1.09,0-.44-.15-.5a.61.61,0,0,0-.7.45s.27-.16.36-.07.13.31,0,.33-.6.29-.07.58a.2.2,0,0,1,.23-.24c.25,0,.11.37.33.44s.33,0,.33,0-.14,0-.14-.12.05-.16.13-.17.18-.14.19-.32.14-.4.3-.43.52-.1.64-.31c0,0-.23,0-.23-.07s.24-.12.35-.21a1.27,1.27,0,0,0,.34-.43s-.22.08-.29,0,.45-.5.35-.81a.45.45,0,0,1-.3.13.76.76,0,0,1-.54-.3.36.36,0,0,1,.1-.51c.26-.2.47-.35.49-.45s.05-.21.1-.19a.94.94,0,0,0,.65.21.81.81,0,0,0,.69-.88,1.87,1.87,0,0,0-.72-1.26c-.39-.34-1-.82-1.07-1a1.85,1.85,0,0,1,0-.7c0-.08.17-.09.17,0a1.5,1.5,0,0,0,.42,1c.35.28.61,0,.62-.1a.14.14,0,0,1-.19-.06c-.06-.12,0-1.07-.33-1.28a.62.62,0,0,0-1,.41,1.64,1.64,0,0,0,.49,1.48c.46.43,1.12,1,1.13,1.5s-.38.51-.55.26-.18-.5-.36-.71-1.48-1.14-1.62-1.39a2.92,2.92,0,0,1-.21-.87s-.28,0-.36,0l-.32,0a1.51,1.51,0,0,0,0,.55S112,67.29,112,67Z"/><path class="cls-1" d="M112.23,69.36s-.8.59-.73.9.29.52.3.71-.76.9-1.08.76-.11-.22-.06-.24.09-.41-.15-.44-.51,0-.58.18c0,0,.26,0,.3.06s.08.29-.07.3-.2-.12-.29-.1-.4.31-.28.55c0,0,.24-.18.36-.11s.19.12.16.17-.2.17-.12.35a.93.93,0,0,0,.23.29s0-.39.16-.36.07.14.07.14a.27.27,0,0,0,.28-.12c.09-.16.08-.21.17-.21s.51-.08.56,0,.3.14.56,0c0,0-.14-.09-.11-.15s.79.08.87-.07c0,0-.42-.16-.31-.29s.28.07.39-.08c0,0-.17,0-.17-.29a.69.69,0,0,1,.25-.61c.2-.17.37-.3.35-.61S112.23,69.36,112.23,69.36Z"/><path class="cls-1" d="M110.31,65.33a2.18,2.18,0,0,1-.59-.07c-.27-.08-.94-.62-.93-.83s0-.31.15-.32,0-.35-.15-.4-.51,0-.53.1.13,0,.16,0,0,.22,0,.22a.58.58,0,0,0-.34-.22c-.18,0-.48.35-.26.55,0,0,.15-.25.23-.2s.15.22.06.22-.18,0-.21,0-.12.43.19.41c0,0,0-.12.11-.13a.18.18,0,0,1,.22.16c0,.12-.1.29-.25.22a.68.68,0,0,0,.45.37c.33.07.4.09.39.18a.15.15,0,0,1-.2.1.67.67,0,0,0,.42.28c.27,0,.24.08.24.12s-.24,0-.24,0,.08.27.6.21C109.8,66.42,109.87,65.57,110.31,65.33Z"/><path class="cls-1" d="M113.06,84.18s-.78-.13-.93.18c0,0-.36,0-.48.12s-.14.2-.23.22-.58,0-.75.14a.36.36,0,0,0-.11.38c0,.08.11.35.29.35,0,0,0-.18.29-.18s.43,0,.48.09a.4.4,0,0,1-.1.49c-.19.13-.46.1-.49,0a.14.14,0,0,0-.26.09.39.39,0,0,0,.45.32c.23,0,.14.09,0,.15A2.06,2.06,0,0,0,110,88.26a1.09,1.09,0,0,1,.58-.29s-.08-.8.56-1c0,0-1.14,1.29.55,1.72a2.57,2.57,0,0,1-.13-.88,1.42,1.42,0,0,1,1.1-1.17s-.94.59-.86,1.17a1.51,1.51,0,0,0,.58.95s0-.29.44-1a1.91,1.91,0,0,0,.48-1.58.31.31,0,0,1,.17.27,1.54,1.54,0,0,1-.13,1c-.22.26-.62.87-.62.87a1.17,1.17,0,0,0,1.19-.76,2.09,2.09,0,0,0-.38-2.13.65.65,0,0,1,.43.21c.13.19.09.46.16.47A1.48,1.48,0,0,0,113.06,84.18Zm-1.17.73c-.07,0-.3.1-.32,0s.18-.14.18-.14a.5.5,0,0,0,.27-.12A.32.32,0,0,1,111.89,84.91Z"/><path class="cls-1" d="M112,88.6a.72.72,0,0,0,.13.35,2.78,2.78,0,0,1-1-.26c-.29-.2-.36-.48-.55-.49s-.5.26-.84.54a2,2,0,0,1-1,.59c-.36,0-.26-.42-.47-.45s-.58.32-.46.55c0,0,.13-.16.24-.1s.15.2.07.23-.37,0-.3.34.27.33.36.32-.27-.35.08-.39c0,0-.06.6.51.39a.32.32,0,0,1-.19-.22c0-.15.09-.19.26-.19s.26.06.26.15a.21.21,0,0,1-.08.15s.24.06.34,0,.32-.51.45-.5-.08.31-.08.31.26,0,.35-.1.18-.35.27-.33,0,.35,0,.35a.38.38,0,0,0,.3-.15c.12-.17.09-.32.22-.32s.85,1,1.32,1.32,1.4.62,1.41,1.07-.74.86-.6,1.31.84.62.85,1-.32,1.11-.55,1.09,0-.44-.15-.51a.62.62,0,0,0-.7.46s.27-.16.36-.07.13.3,0,.33-.6.29-.07.57a.2.2,0,0,1,.23-.23c.25,0,.11.36.33.44s.33,0,.33,0-.14,0-.14-.13a.18.18,0,0,1,.13-.17c.09,0,.18-.14.19-.31s.14-.4.3-.43.52-.11.64-.31c0,0-.23,0-.23-.08s.24-.11.35-.2a1.27,1.27,0,0,0,.34-.43s-.22.08-.29,0,.45-.5.35-.81a.42.42,0,0,1-.3.12.7.7,0,0,1-.54-.3.35.35,0,0,1,.1-.5c.26-.2.47-.35.49-.45s.05-.22.1-.19a.94.94,0,0,0,.65.21.82.82,0,0,0,.69-.88,1.85,1.85,0,0,0-.72-1.26c-.39-.34-1-.82-1.07-1a1.85,1.85,0,0,1,0-.7c0-.08.17-.1.17,0a1.54,1.54,0,0,0,.42,1c.35.28.61,0,.62-.11s-.13.07-.19,0,0-1.07-.33-1.28a.62.62,0,0,0-1,.41,1.61,1.61,0,0,0,.49,1.47c.46.44,1.12,1,1.13,1.5s-.38.51-.55.27-.18-.5-.36-.71-1.48-1.15-1.62-1.39a2.92,2.92,0,0,1-.21-.87s-.28.05-.36.05l-.32,0a1.46,1.46,0,0,0,0,.54S112,88.85,112,88.6Z"/><path class="cls-1" d="M112.23,90.92s-.8.59-.73.9.29.52.3.71-.76.9-1.08.75-.11-.21-.06-.23.09-.41-.15-.44-.51,0-.58.18c0,0,.26,0,.3,0s.08.3-.07.3-.2-.11-.29-.09-.4.31-.28.54c0,0,.24-.17.36-.1s.19.11.16.16-.2.18-.12.35a.9.9,0,0,0,.23.3s0-.39.16-.36.07.14.07.14a.27.27,0,0,0,.28-.12c.09-.16.08-.22.17-.22s.51-.07.56,0,.3.14.56,0c0,0-.14-.09-.11-.15s.79.08.87-.07-.42-.16-.31-.3.28.08.39-.07c0,0-.17,0-.17-.29a.69.69,0,0,1,.25-.61c.2-.17.37-.3.35-.62S112.23,90.92,112.23,90.92Z"/><path class="cls-1" d="M110.31,86.89a2.18,2.18,0,0,1-.59-.07c-.27-.08-.94-.62-.93-.83s0-.31.15-.33,0-.34-.15-.4-.51,0-.53.11.13,0,.16,0,0,.22,0,.22-.16-.22-.34-.22-.48.35-.26.54c0,0,.15-.24.23-.19s.15.22.06.22-.18,0-.21.05-.12.42.19.41c0,0,0-.13.11-.14a.19.19,0,0,1,.22.17.2.2,0,0,1-.25.22.68.68,0,0,0,.45.37c.33.07.4.09.39.18s-.15.14-.2.09a.63.63,0,0,0,.42.29c.27,0,.24.07.24.12s-.24,0-.24,0,.08.27.6.22C109.8,88,109.87,87.13,110.31,86.89Z"/><path class="cls-1" d="M135.28,84.18s-.79-.13-.94.18c0,0-.36,0-.48.12s-.13.2-.23.22-.58,0-.75.14a.36.36,0,0,0-.11.38c0,.08.12.35.29.35a.27.27,0,0,1,.29-.18.82.82,0,0,1,.49.09.41.41,0,0,1-.1.49c-.19.13-.46.1-.5,0a.13.13,0,0,0-.25.09.38.38,0,0,0,.44.32c.23,0,.14.09-.05.15a2.08,2.08,0,0,0-1.19,1.73,1.09,1.09,0,0,1,.58-.29s-.08-.8.56-1c0,0-1.14,1.29.55,1.72a2.57,2.57,0,0,1-.13-.88,1.42,1.42,0,0,1,1.1-1.17s-.93.59-.86,1.17a1.55,1.55,0,0,0,.58.95s0-.29.44-1a2,2,0,0,0,.49-1.58.34.34,0,0,1,.17.27,1.48,1.48,0,0,1-.14,1c-.22.26-.62.87-.62.87a1.17,1.17,0,0,0,1.19-.76,2.11,2.11,0,0,0-.37-2.13.62.62,0,0,1,.42.21c.13.19.09.46.17.47A1.49,1.49,0,0,0,135.28,84.18Zm-1.18.73c-.06,0-.3.1-.31,0s.17-.14.17-.14a.5.5,0,0,0,.27-.12A.28.28,0,0,1,134.1,84.91Z"/><path class="cls-1" d="M134.16,88.6a.84.84,0,0,0,.13.35,2.7,2.7,0,0,1-1-.26c-.3-.2-.37-.48-.56-.49s-.5.26-.84.54a2,2,0,0,1-1,.59c-.36,0-.26-.42-.46-.45s-.59.32-.47.55c0,0,.14-.16.24-.1s.15.2.07.23-.37,0-.3.34.27.33.37.32-.28-.35.07-.39c0,0-.06.6.51.39,0,0-.17-.07-.18-.22s.09-.19.26-.19.25.06.25.15a.21.21,0,0,1-.08.15s.24.06.35,0,.31-.51.45-.5-.09.31-.09.31.27,0,.36-.1.17-.35.27-.33,0,.35,0,.35a.38.38,0,0,0,.3-.15c.12-.17.09-.32.22-.32s.85,1,1.33,1.32,1.39.62,1.4,1.07-.74.86-.6,1.31.84.62.86,1-.33,1.11-.55,1.09,0-.44-.15-.51a.62.62,0,0,0-.71.46s.27-.16.36-.07.13.3,0,.33-.61.29-.08.57a.2.2,0,0,1,.23-.23c.25,0,.11.36.34.44a.28.28,0,0,0,.32,0s-.14,0-.13-.13a.16.16,0,0,1,.13-.17c.08,0,.17-.14.19-.31s.13-.4.29-.43a1.07,1.07,0,0,0,.65-.31s-.24,0-.23-.08.23-.11.34-.2a1.27,1.27,0,0,0,.34-.43s-.22.08-.28,0,.45-.5.34-.81a.38.38,0,0,1-.29.12.7.7,0,0,1-.54-.3.33.33,0,0,1,.1-.5c.25-.2.46-.35.48-.45s.06-.22.11-.19a.89.89,0,0,0,.65.21.81.81,0,0,0,.68-.88,1.81,1.81,0,0,0-.72-1.26c-.39-.34-1-.82-1.06-1a1.9,1.9,0,0,1,0-.7c.05-.08.17-.1.17,0a1.54,1.54,0,0,0,.42,1c.36.28.61,0,.63-.11s-.14.07-.2,0,0-1.07-.33-1.28a.61.61,0,0,0-1,.41,1.61,1.61,0,0,0,.48,1.47c.47.44,1.12,1,1.14,1.5s-.39.51-.56.27-.17-.5-.35-.71-1.49-1.15-1.63-1.39a3.28,3.28,0,0,1-.21-.87,3.44,3.44,0,0,1-.36.05l-.32,0a1.31,1.31,0,0,0,0,.54S134.23,88.85,134.16,88.6Z"/><path class="cls-1" d="M134.45,90.92s-.8.59-.74.9.3.52.31.71-.76.9-1.09.75-.1-.21-.06-.23.09-.41-.15-.44-.51,0-.57.18c0,0,.25,0,.29,0s.08.3-.07.3-.19-.11-.28-.09-.4.31-.28.54c0,0,.23-.17.36-.1s.19.11.15.16-.2.18-.12.35a.86.86,0,0,0,.24.3s0-.39.15-.36.07.14.07.14a.27.27,0,0,0,.28-.12c.09-.16.08-.22.17-.22s.51-.07.56,0,.3.14.56,0c0,0-.13-.09-.11-.15s.79.08.87-.07-.41-.16-.31-.3.28.08.39-.07c0,0-.16,0-.16-.29a.67.67,0,0,1,.25-.61c.19-.17.36-.3.34-.62S134.45,90.92,134.45,90.92Z"/><path class="cls-1" d="M132.52,86.89a2.12,2.12,0,0,1-.58-.07c-.27-.08-.95-.62-.93-.83s0-.31.14-.33,0-.34-.14-.4-.51,0-.54.11.14,0,.17,0a.54.54,0,0,1,0,.22s-.17-.22-.35-.22-.47.35-.26.54c0,0,.15-.24.24-.19s.15.22.06.22-.18,0-.22.05-.12.42.19.41c0,0,0-.13.12-.14a.2.2,0,1,1,0,.39.68.68,0,0,0,.45.37c.33.07.4.09.39.18s-.15.14-.19.09.13.25.41.29.25.07.24.12-.23,0-.23,0,.07.27.6.22C132,88,132.09,87.13,132.52,86.89Z"/><g id="ZWCWjN.tif"><path class="cls-1" d="M21,136.81a1.82,1.82,0,0,1,.71.74c0-.15,0-.25.06-.35s.12-.22.28-.11a1.08,1.08,0,0,1,.44.55c.1.34.19.68.26,1a3.68,3.68,0,0,1,.08.58l.25,0a.54.54,0,0,1,.5.23c.28.36.55.73.83,1.1a.46.46,0,0,1,0,.6,1.07,1.07,0,0,1-.81.45l-.42,0a4.35,4.35,0,0,0,.15.47c.19.43.19.48-.14.8v.13c.07.42-.17.64-.5.81-.11.06-.23.09-.25.26l.75.69a.71.71,0,0,1,.15.15.88.88,0,0,1,.07.2,2.91,2.91,0,0,1-.41,0,2.22,2.22,0,0,1-.73,0,2,2,0,0,1-.56-.43l-.38-.3-.48.17c-.14,0-.3.06-.45.09l.2.45a.86.86,0,0,1-.18,0H18.27a.61.61,0,0,1-.26-.08.5.5,0,0,0-.36-.06,2.54,2.54,0,0,1-.55,0,1.09,1.09,0,0,1-.76-.39l-.36-.43.35.08a.69.69,0,0,1-.19-.7l.11.16a.52.52,0,0,1,.52-.48c.06-.29.1-.58.16-.86a3.16,3.16,0,0,1,.42-1,2.34,2.34,0,0,1,2.54-1l.7.23c.36-.28.36-.28.63-.33.06-.24.12-.48.17-.72a.52.52,0,0,0-.12-.43l-.39-.5a1.11,1.11,0,0,1-.24-.58c0-.3-.06-.6-.07-.9a.51.51,0,0,1,.21-.48Z"/></g><g id="ZWCWjN.tif-2" data-name="ZWCWjN.tif"><path class="cls-1" d="M180.05,136.81a1.82,1.82,0,0,0-.71.74c0-.15,0-.25-.06-.35s-.12-.22-.28-.11a1.08,1.08,0,0,0-.44.55c-.1.34-.19.68-.26,1a3.68,3.68,0,0,0-.08.58l-.25,0a.54.54,0,0,0-.5.23c-.28.36-.55.73-.83,1.1a.46.46,0,0,0,0,.6,1.05,1.05,0,0,0,.81.45l.42,0a4.35,4.35,0,0,1-.15.47c-.19.43-.19.48.14.8v.13c-.07.42.17.64.5.81.11.06.23.09.25.26l-.75.69a.71.71,0,0,0-.15.15.88.88,0,0,0-.07.2,2.91,2.91,0,0,0,.41,0,2.22,2.22,0,0,0,.73,0,2,2,0,0,0,.56-.43l.37-.3.49.17c.14,0,.3.06.45.09l-.2.45a.86.86,0,0,0,.18,0h2.06a.61.61,0,0,0,.26-.08.5.5,0,0,1,.36-.06,2.54,2.54,0,0,0,.55,0,1.09,1.09,0,0,0,.76-.39l.36-.43-.35.08a.69.69,0,0,0,.19-.7l-.11.16a.52.52,0,0,0-.53-.48c-.05-.29-.09-.58-.15-.86a3.16,3.16,0,0,0-.42-1,2.34,2.34,0,0,0-2.54-1l-.7.23c-.36-.28-.36-.28-.63-.33-.06-.24-.12-.48-.17-.72a.52.52,0,0,1,.12-.43l.39-.5a1.11,1.11,0,0,0,.24-.58c0-.3.06-.6.07-.9a.51.51,0,0,0-.21-.48Z"/></g><path d="M52,142.17c.87,4.55,1,8.42,0,11.3a54.24,54.24,0,0,0,11.12.68c5.36-.34,14.55-4.11,14.55-4.11v-4.8L77,139.36a2.48,2.48,0,0,0-3.25-1.24c-2.77,2-7.93,5.75-10.69,6C59.16,144.5,52,142.17,52,142.17Z"/><path d="M145.76,147.56c-.74,5.53-1.39,9.76-4.76,13,0,0-8.75-5.28-15.16-7.52-5.13-1.78-12.24,1.4-21.65,1.78h0c-9.41-.38-16.52-3.56-21.65-1.78-6.41,2.24-15.16,7.52-15.16,7.52-3.37-3.26-4-7.49-4.76-13,4-2.64,14.75-5.78,20.31-6.52,4.28-.57,15.43,2.55,21.26,2.51h0c5.83,0,17-3.08,21.26-2.51C131,141.78,141.76,144.92,145.76,147.56Z"/><path d="M156.37,142.17c-.87,4.55-1,8.42,0,11.3a54.24,54.24,0,0,1-11.12.68c-5.36-.34-14.55-4.11-14.55-4.11v-4.8l.63-5.88a2.48,2.48,0,0,1,3.25-1.24c2.76,2,7.92,5.75,10.69,6C149.2,144.5,156.37,142.17,156.37,142.17Z"/><path d="M60.34,145.29c5.83,0,17-3.08,21.26-2.51"/><path class="cls-4" d="M88.93,144.12l4.11.66-.11.7-3.36-.54-.28,1.72,3.11.5-.1.65-3.11-.49-.31,1.92,3.42.54-.1.68L88,149.79Z"/><path class="cls-4" d="M94,149.45A1.06,1.06,0,0,0,94,150a1.13,1.13,0,0,0,.87.49,1.33,1.33,0,0,0,.72-.05A.55.55,0,0,0,96,150a.46.46,0,0,0-.17-.45,3.26,3.26,0,0,0-.57-.3l-.53-.23a2.61,2.61,0,0,1-.74-.43.89.89,0,0,1-.32-.86,1.19,1.19,0,0,1,.59-.87,1.71,1.71,0,0,1,1.21-.16,1.62,1.62,0,0,1,1.27.78,1.22,1.22,0,0,1,.12.79l-.65-.11a.84.84,0,0,0-.1-.46,1.12,1.12,0,0,0-.8-.42,1,1,0,0,0-.63,0,.45.45,0,0,0-.28.36.49.49,0,0,0,.2.47,1.39,1.39,0,0,0,.43.25l.45.19a3.71,3.71,0,0,1,1,.53,1,1,0,0,1,.26.91,1.25,1.25,0,0,1-.59.87,1.84,1.84,0,0,1-1.36.18,1.77,1.77,0,0,1-1.24-.64,1.64,1.64,0,0,1-.24-1.11Z"/><path class="cls-4" d="M98.49,146.12l.7.1L99,147.38l.66.1-.08.57-.66-.1-.42,2.7a.3.3,0,0,0,.1.31.79.79,0,0,0,.27.08l.11,0h.13l-.08.56h-.26l-.28,0a.76.76,0,0,1-.62-.35,1.12,1.12,0,0,1-.08-.67l.42-2.74-.56-.09.09-.56.56.08Z"/><path class="cls-4" d="M103,150.83a2.46,2.46,0,0,1,1-1l.75-.45a3.39,3.39,0,0,0,.69-.51,1.09,1.09,0,0,0,.31-.75,1.07,1.07,0,0,0-.31-.78,1.13,1.13,0,0,0-.79-.27,1,1,0,0,0-1,.57,2,2,0,0,0-.14.82h-.72a2.44,2.44,0,0,1,.25-1.19,1.69,1.69,0,0,1,1.59-.85,1.76,1.76,0,0,1,1.42.49,1.72,1.72,0,0,1,.46,1.15,1.56,1.56,0,0,1-.45,1.16,4.34,4.34,0,0,1-1,.69l-.53.31a3.63,3.63,0,0,0-.6.41,1.49,1.49,0,0,0-.47.76l3-.06V152l-3.84.07A3.24,3.24,0,0,1,103,150.83Z"/><path class="cls-4" d="M110.66,146.66a4,4,0,0,1,.65,1.82,4.61,4.61,0,0,1-.06,1.92,1.67,1.67,0,0,1-1.44,1.29,1.6,1.6,0,0,1-1.61-.64,4.07,4.07,0,0,1-.69-1.88,5.11,5.11,0,0,1,0-1.66A1.67,1.67,0,0,1,109,146,1.64,1.64,0,0,1,110.66,146.66Zm-.16,3.79a3.44,3.44,0,0,0,.06-1.83,4.34,4.34,0,0,0-.46-1.52.88.88,0,0,0-1-.47.93.93,0,0,0-.81.71,3.89,3.89,0,0,0,0,1.74,4.23,4.23,0,0,0,.38,1.34,1,1,0,0,0,1.07.64A1,1,0,0,0,110.5,150.45Z"/><path class="cls-4" d="M112.41,147.11l-.09-.53a2.91,2.91,0,0,0,1-.43,1.2,1.2,0,0,0,.3-.89l.55-.09,1,5.48-.74.13-.67-3.9Z"/><path class="cls-4" d="M119.88,145.12a4,4,0,0,1,.66,1.81,4.64,4.64,0,0,1-.05,1.92,1.66,1.66,0,0,1-1.43,1.3,1.62,1.62,0,0,1-1.62-.64,4.09,4.09,0,0,1-.7-1.87,4.85,4.85,0,0,1,0-1.66,1.68,1.68,0,0,1,1.45-1.51A1.66,1.66,0,0,1,119.88,145.12Zm-.13,3.79a3.49,3.49,0,0,0,0-1.83,4.26,4.26,0,0,0-.47-1.52.88.88,0,0,0-1-.47,1,1,0,0,0-.81.72,3.94,3.94,0,0,0,0,1.74,4.16,4.16,0,0,0,.38,1.33,1,1,0,0,0,1.08.64A1,1,0,0,0,119.75,148.91Z"/></g></g></svg>